<?xml version="1.0" encoding="UTF-8"?><svg id="Layer_2" xmlns="http://www.w3.org/2000/svg" viewBox="0 0 723.5 290.28"><defs><style>.cls-1{fill:#82807e;stroke-width:0px;}</style></defs><g id="Layer_1-2"><rect class="cls-1" x="489.81" y="112.24" width="9.17" height="11.14" transform="translate(-3.46 15.62) rotate(-1.8)"/><path class="cls-1" d="M366.84,82.99c-4.25.13-7.93,1.41-11.05,3.83-3.11,2.42-5.43,5.68-6.94,9.79l31.01-.98c-.85-8.68-5.19-12.89-13.02-12.64Z"/><path class="cls-1" d="M372.58,185.01c-4.24-1.55-8.94-2.06-13.38-1.15-.83.17-1.61.38-2.36.64-2.37.82-4.36,2.12-6.13,4.14-3.16,3.6-4.66,8.04-4.49,13.32.17,5.29,1.96,9.58,5.38,12.88,3.33,3.39,7.64,5,12.93,4.84,5.28-.17,9.53-2.03,12.74-5.58,3.2-3.55,4.72-7.97,4.56-13.26-.17-5.28-1.96-9.62-5.39-13.01-1.15-1.14-2.32-2.25-3.86-2.82Z"/><path class="cls-1" d="M622.47,172.55c-4.39.14-8.05,1.46-10.97,3.98-2.93,2.51-4.76,6.07-5.51,10.66l32.65-1.03c-2-9.35-7.39-13.89-16.16-13.61Z"/><path class="cls-1" d="M721.98,226.54c-.87.14-1.74.23-2.63.26-16.33.51-30.15-17.73-30.88-40.75-.72-23.02,11.92-42.1,28.25-42.61.89-.03,1.77,0,2.64.09l-1.52-48.41-221.62,6.98-.08-2.46-6.9.22-.56-17.82,6.9-.22-.39-12.53-6.9.22-.56-17.82,6.9-.22-.39-12.53-6.9.22-.56-17.82,6.9-.22-.39-12.53-6.9.22-.28-8.81L0,15.31l1.73,54.93c2.5-1.08,5.16-1.71,7.92-1.79,16.33-.51,30.15,17.73,30.88,40.75.72,23.02-11.92,42.1-28.25,42.61-2.76.09-5.45-.37-8.02-1.29l1.54,49,221.62-6.98.16,5.18,6.27-.2.56,17.82-6.27.2.39,12.53,6.27-.2.56,17.82-6.27.2.39,12.53,6.27-.2.56,17.82-6.27.2.39,12.53,6.27-.2.05,1.71,486.73-15.33-1.52-48.41ZM124.99,94.37l-23.04.73-2.47,22.85c-.16,1.17-.22,2.28-.19,3.34.08,2.61.82,4.67,2.23,6.17,1.4,1.5,4.22,2.19,8.48,2.05,4.54-.14,8.81-1.15,12.81-3.01l-2.15,19.21c-4.96,2.28-10.67,3.53-17.14,3.73-17.2.54-26.02-6.43-26.48-20.92-.06-1.93.02-4.06.23-6.39l2.8-26.34-13.33.42,1.88-18.48,13.47-.42,2.14-19.5,21.88-.69-2.14,19.5,23.04-.73-2.03,18.48ZM155.48,146.06l-22.02.69,7.76-71.31,22.02-.69-7.76,71.31ZM163.75,60.81c-2.95,2.9-6.46,4.41-10.52,4.54-3.48.11-6.34-.82-8.57-2.78-2.24-1.96-3.4-4.48-3.5-7.58-.13-4.06,1.26-7.56,4.17-10.5,2.9-2.94,6.43-4.48,10.59-4.61,3.48-.11,6.34.84,8.57,2.85,2.24,2.01,3.41,4.61,3.51,7.79.12,3.96-1.29,7.39-4.24,10.29ZM236.57,95.79c-5.8-3.1-11.99-4.55-18.56-4.35-6.76.21-12.18,2.27-16.27,6.17-4.08,3.9-6.03,8.7-5.86,14.4.14,4.44,1.84,7.9,5.11,10.35,3.27,2.46,7.7,3.6,13.31,3.42,6.27-.2,12.54-1.96,18.81-5.24.29-.15.59-.29.88-.46l-.7,6.22-1.68,14.89c-6.29,3-13.34,4.63-21.17,4.87-11.01.35-19.89-2.25-26.64-7.79-6.75-5.54-10.28-13.14-10.58-22.8-.4-12.85,3.52-23.32,11.77-31.41,8.25-8.09,19.09-12.35,32.52-12.77,7.63-.24,14.73.94,21.29,3.54l-2.24,20.96ZM296.46,141.62l-17.39-27.3-9.45,8.56-2.14,19.65-22.02.69,4.05-37.49,6.95-64.38,22.02-.69-6.06,56.32,28.9-26.58,27.1-.85-33.56,30.5,2.67,4.18,23.42,36.63-24.49.77ZM390.58,224.64c-5.93,6.64-13.33,10.1-22.2,10.38-4.48.14-8.58-.6-12.31-2.23-3.73-1.63-6.67-3.98-8.83-7.05l1.16,36.68-16.93.53-2.45-77.75-.48-15.09,16.79-.53.27,8.73c1.96-3.2,4.75-5.78,8.36-7.73,3.61-1.95,7.71-3,12.27-3.14,8.87-.28,16.47,2.71,22.81,8.96,2.09,2.06,3.84,4.31,5.27,6.73,2.92,4.95,4.49,10.67,4.7,17.16.3,9.58-2.52,17.7-8.45,24.34ZM400.91,100.97c-.2,2.56-.58,4.98-1.22,7.24l-52.16,1.64c.98,9.54,7.16,14.13,18.56,13.77,8.79-.28,17.71-2.64,26.75-7.08l-1.9,18.05c-7.9,4.12-16.96,6.33-27.2,6.66-11.3.36-20.38-2.19-27.22-7.63-6.84-5.44-10.42-13.13-10.74-23.08-.08-2.48.04-4.88.32-7.21,1.09-8.92,4.84-16.75,11.26-23.47,8.1-8.47,18.28-12.9,30.55-13.29,9.66-.3,17.52,2.18,23.58,7.45,6.06,5.27,9.24,12.54,9.54,21.82.06,1.78,0,3.48-.13,5.13ZM410.57,66.96l13.47-.42,2.14-19.5,21.88-.69-2.14,19.5,23.04-.73-2.03,18.48-23.04.73-1.66,15.34-.81,7.51c-.16,1.17-.22,2.28-.18,3.34.08,2.61.82,4.67,2.22,6.17,1.4,1.5,4.22,2.19,8.48,2.05,4.54-.14,8.81-1.15,12.81-3.01l-2.15,19.21c-4.96,2.28-10.67,3.53-17.14,3.73-17.2.54-26.02-6.43-26.48-20.92-.06-1.93.02-4.06.23-6.39l1.17-11.01,1.63-15.33-13.33.42,1.88-18.48ZM459.56,230.67l-.29-9.27c-4.7,7.32-11.84,11.13-21.43,11.43-7.17.23-13.02-1.88-17.55-6.31-4.53-4.43-6.92-10.59-7.17-18.47l-.8-25.49-.48-15.09,16.93-.53.48,15.09.66,20.92c.3,9.67,4.8,14.37,13.49,14.1,4.66-.15,8.37-1.7,11.15-4.66,2.78-2.96,4.08-6.99,3.92-12.09l-.6-19.17-.48-15.09,16.93-.53.48,15.09,1.56,49.54-16.79.53ZM494.62,229.57l-1.56-49.54-1.4-44.51,13.56-.43,3.37-.11,2.96,94.05-16.93.53ZM572.49,223.08c-4.77,3.83-11.72,5.88-20.85,6.17-9.58.3-17.74-1.1-24.47-4.21l-.47-15.05c3.2,1.87,7.08,3.37,11.64,4.48,4.56,1.11,8.77,1.61,12.62,1.48,3.76-.12,6.65-.84,8.67-2.16,2.02-1.32,3-3.01,2.93-5.07-.07-2.15-1.4-3.81-3.99-4.98-2.59-1.17-5.74-2.11-9.43-2.79-3.7-.69-7.42-1.56-11.18-2.61-3.75-1.04-6.95-2.94-9.59-5.68-2.64-2.74-4.03-6.31-4.17-10.69-.18-5.82,2.13-10.6,6.95-14.34,4.72-3.73,11.52-5.74,20.39-6.02,8.06-.25,15.49.81,22.29,3.2l.46,14.51c-6.92-3.28-14.27-4.79-22.06-4.55-7.44.23-11.09,2.32-10.97,6.26.05,1.7,1.02,3.08,2.89,4.14,1.87,1.06,4.2,1.82,7,2.27,2.79.45,5.79,1.1,9,1.94,3.21.84,6.22,1.82,9.04,2.94,2.81,1.12,5.18,3,7.1,5.63,1.92,2.63,2.94,5.87,3.06,9.72.2,6.45-2.08,11.59-6.84,15.41ZM655.64,196.66l-49.44,1.56c1.94,10.25,9,15.18,21.18,14.8,8.42-.27,16.24-2.53,23.46-6.79l.45,14.38c-7.32,3.91-15.5,6-24.55,6.29-11.29.36-20.31-2.29-27.08-7.96-6.77-5.66-10.31-13.59-10.63-23.8-.32-10.3,2.64-18.78,8.88-25.43,6.25-6.56,14.39-10,24.42-10.32,9.67-.3,17.58,2.47,23.73,8.33,6.15,5.86,9.38,13.8,9.69,23.83.05,1.61.01,3.32-.11,5.11Z"/></g></svg>